<mxfile host="65bd71144e" scale="4" border="20" disableSvgWarning="true">
    <diagram id="XoFYVbQiYouHSBdRtk4J" name="Page-1">
        <mxGraphModel dx="577" dy="268" grid="1" gridSize="10" guides="1" tooltips="1" connect="1" arrows="1" fold="1" page="1" pageScale="1" pageWidth="583" pageHeight="413" math="0" shadow="0">
            <root>
                <mxCell id="0"/>
                <mxCell id="1" parent="0"/>
                <mxCell id="2" value="Business" style="shape=umlActor;verticalLabelPosition=bottom;verticalAlign=top;html=1;outlineConnect=0;sketch=1;labelBackgroundColor=none;" parent="1" vertex="1">
                    <mxGeometry x="137" y="177" width="30" height="60" as="geometry"/>
                </mxCell>
                <mxCell id="3" value="Developers" style="shape=umlActor;verticalLabelPosition=bottom;verticalAlign=top;html=1;outlineConnect=0;sketch=1;" parent="1" vertex="1">
                    <mxGeometry x="277" y="177" width="30" height="60" as="geometry"/>
                </mxCell>
                <mxCell id="4" value="Operations" style="shape=umlActor;verticalLabelPosition=bottom;verticalAlign=top;html=1;outlineConnect=0;sketch=1;" parent="1" vertex="1">
                    <mxGeometry x="433.5" y="177" width="30" height="60" as="geometry"/>
                </mxCell>
                <mxCell id="6" value="" style="whiteSpace=wrap;html=1;sketch=1;" parent="1" vertex="1">
                    <mxGeometry x="207" y="142" width="30" height="130" as="geometry"/>
                </mxCell>
                <mxCell id="7" value="" style="whiteSpace=wrap;html=1;sketch=1;" parent="1" vertex="1">
                    <mxGeometry x="360" y="142" width="30" height="130" as="geometry"/>
                </mxCell>
                <mxCell id="12" value="" style="endArrow=classic;html=1;sketch=1;curved=1;" parent="1" edge="1">
                    <mxGeometry width="50" height="50" relative="1" as="geometry">
                        <mxPoint x="160" y="160" as="sourcePoint"/>
                        <mxPoint x="270" y="160" as="targetPoint"/>
                        <Array as="points">
                            <mxPoint x="220" y="40"/>
                        </Array>
                    </mxGeometry>
                </mxCell>
                <mxCell id="10" value="Task" style="whiteSpace=wrap;html=1;aspect=fixed;rotation=15;sketch=1;" parent="1" vertex="1">
                    <mxGeometry x="198.5" y="59.99999999999999" width="47" height="47" as="geometry"/>
                </mxCell>
                <mxCell id="15" value="" style="endArrow=classic;html=1;sketch=1;curved=1;" parent="1" edge="1">
                    <mxGeometry width="50" height="50" relative="1" as="geometry">
                        <mxPoint x="307" y="170" as="sourcePoint"/>
                        <mxPoint x="440" y="170" as="targetPoint"/>
                        <Array as="points">
                            <mxPoint x="380" y="60"/>
                        </Array>
                    </mxGeometry>
                </mxCell>
                <mxCell id="11" value="App" style="whiteSpace=wrap;html=1;aspect=fixed;rotation=-10;sketch=1;" parent="1" vertex="1">
                    <mxGeometry x="360" y="76.71" width="47" height="47" as="geometry"/>
                </mxCell>
                <mxCell id="16" value="Money" style="ellipse;shape=cloud;whiteSpace=wrap;html=1;labelBackgroundColor=none;sketch=1;" parent="1" vertex="1">
                    <mxGeometry x="87" y="123.71000000000001" width="80" height="46.71" as="geometry"/>
                </mxCell>
                <mxCell id="17" value="Performance" style="ellipse;shape=cloud;whiteSpace=wrap;html=1;labelBackgroundColor=none;sketch=1;" parent="1" vertex="1">
                    <mxGeometry x="252" y="92" width="98" height="50" as="geometry"/>
                </mxCell>
                <mxCell id="18" value="Availability" style="ellipse;shape=cloud;whiteSpace=wrap;html=1;labelBackgroundColor=none;sketch=1;" parent="1" vertex="1">
                    <mxGeometry x="433.5" y="122.07" width="86.5" height="50" as="geometry"/>
                </mxCell>
                <mxCell id="19" value="" style="ellipse;shape=cloud;whiteSpace=wrap;html=1;" vertex="1" parent="1">
                    <mxGeometry x="128" y="172.07" width="10" height="12" as="geometry"/>
                </mxCell>
                <mxCell id="20" value="" style="ellipse;shape=cloud;whiteSpace=wrap;html=1;" vertex="1" parent="1">
                    <mxGeometry x="110" y="164.58" width="18" height="12.42" as="geometry"/>
                </mxCell>
                <mxCell id="21" value="" style="ellipse;shape=cloud;whiteSpace=wrap;html=1;" vertex="1" parent="1">
                    <mxGeometry x="287" y="160.07" width="10" height="12" as="geometry"/>
                </mxCell>
                <mxCell id="22" value="" style="ellipse;shape=cloud;whiteSpace=wrap;html=1;" vertex="1" parent="1">
                    <mxGeometry x="292" y="147.65" width="18" height="12.42" as="geometry"/>
                </mxCell>
                <mxCell id="23" value="" style="ellipse;shape=cloud;whiteSpace=wrap;html=1;" vertex="1" parent="1">
                    <mxGeometry x="463.5" y="176.99999999999997" width="10" height="12" as="geometry"/>
                </mxCell>
                <mxCell id="24" value="" style="ellipse;shape=cloud;whiteSpace=wrap;html=1;" vertex="1" parent="1">
                    <mxGeometry x="470.75" y="168.42" width="18" height="12.42" as="geometry"/>
                </mxCell>
            </root>
        </mxGraphModel>
    </diagram>
</mxfile>